<?xml version="1.0" encoding="utf-8"?>
<!-- Generator: Adobe Illustrator 25.0.1, SVG Export Plug-In . SVG Version: 6.00 Build 0)  -->
<svg version="1.1" id="Ebene_1" xmlns="http://www.w3.org/2000/svg" xmlns:xlink="http://www.w3.org/1999/xlink" x="0px" y="0px"
	 viewBox="0 0 300 161" style="enable-background:new 0 0 300 161;" xml:space="preserve">
<style type="text/css">
	.st0{clip-path:url(#SVGID_2_);fill:#FFFFFF;}
</style>
<g>
	<defs>
		<rect id="SVGID_1_" x="4" y="3" width="293" height="153.3"/>
	</defs>
	<clipPath id="SVGID_2_">
		<use xlink:href="#SVGID_1_"  style="overflow:visible;"/>
	</clipPath>
	<path class="st0" d="M265.7,88.9h-2.9c-52.7,0-195.2,0-248,0c-2.3,0-4.5-0.1-6.5-1.4c-3.4-2.2-5.1-6.3-4.2-10c1-4,4.2-6.7,8.4-7
		c0.8-0.1,1.6,0,2.4,0c52.7,0,195.1,0,247.8,0h2.7c-0.7-0.8-1.2-1.3-1.6-1.8c-16-16.5-32.1-32.9-48.1-49.3c-2.6-2.6-3.8-5.6-2.9-9.3
		c0.8-3.5,3.1-5.7,6.4-6.6c3.5-1,6.7-0.1,9.2,2.5c10.5,10.8,21,21.6,31.6,32.4c11.4,11.7,22.8,23.3,34.2,35c3.5,3.6,3.5,9.2,0,12.8
		c-21.9,22.4-43.8,44.8-65.7,67.2c-3.2,3.3-7.8,4-11.6,1.7c-3.7-2.2-5.5-6.7-4-10.8c0.6-1.6,1.7-3.1,2.9-4.3
		c16-16.4,32-32.8,48-49.2C264.4,90.3,264.9,89.8,265.7,88.9"/>
</g>
</svg>
